<svg width="210" height="204" viewBox="0 0 210 204" fill="none" xmlns="http://www.w3.org/2000/svg">
<path d="M209.114 -4.44849H0.925232V203.74H209.114V-4.44849Z" fill="#21325E"/>
<path opacity="0.2" d="M26.9487 138.681H183.09V158.199C183.09 159.924 182.405 161.579 181.184 162.799C179.964 164.019 178.31 164.705 176.584 164.705H33.4546C31.7291 164.705 30.0744 164.019 28.8543 162.799C27.6342 161.579 26.9487 159.924 26.9487 158.199V138.681Z" fill="#21325E"/>
<path opacity="0.2" d="M183.09 60.6104H26.9487V41.0927C26.9487 39.3672 27.6342 37.7124 28.8543 36.4924C30.0744 35.2723 31.7291 34.5868 33.4546 34.5868H176.584C178.31 34.5868 179.964 35.2723 181.184 36.4924C182.405 37.7124 183.09 39.3672 183.09 41.0927V60.6104Z" fill="#21325E"/>
<path d="M176.584 34.5868H33.4546C29.8615 34.5868 26.9487 37.4996 26.9487 41.0927V158.199C26.9487 161.792 29.8615 164.705 33.4546 164.705H176.584C180.177 164.705 183.09 161.792 183.09 158.199V41.0927C183.09 37.4996 180.177 34.5868 176.584 34.5868Z" fill="#21325E" stroke="#C4AB15" stroke-width="13.0118" stroke-linecap="round" stroke-linejoin="round"/>
<path d="M105.019 34.5868V164.705" stroke="#C4AB15" stroke-width="13.0118" stroke-linecap="round" stroke-linejoin="round"/>
<path d="M26.9487 60.6104H183.09" stroke="#C4AB15" stroke-width="13.0118" stroke-linecap="round" stroke-linejoin="round"/>
<path d="M26.9487 138.681H183.09" stroke="#C4AB15" stroke-width="13.0118" stroke-linecap="round" stroke-linejoin="round"/>
<path d="M65.9841 34.5868V60.6104" stroke="#C4AB15" stroke-width="13.0118" stroke-linecap="round" stroke-linejoin="round"/>
<path d="M144.055 34.5868V60.6104" stroke="#C4AB15" stroke-width="13.0118" stroke-linecap="round" stroke-linejoin="round"/>
<path d="M65.9841 138.681V164.705" stroke="#C4AB15" stroke-width="13.0118" stroke-linecap="round" stroke-linejoin="round"/>
<path d="M144.055 138.681V164.705" stroke="#C4AB15" stroke-width="13.0118" stroke-linecap="round" stroke-linejoin="round"/>
</svg>
